<?xml version="1.0" standalone="no"?>
<!DOCTYPE svg PUBLIC "-//W3C//DTD SVG 20010904//EN"
 "http://www.w3.org/TR/2001/REC-SVG-20010904/DTD/svg10.dtd">
<svg version="1.0" xmlns="http://www.w3.org/2000/svg"
 width="840.000000pt" height="859.000000pt" viewBox="0 0 840.000000 859.000000"
 preserveAspectRatio="xMidYMid meet">

<g transform="translate(0.000000,859.000000) scale(0.100000,-0.100000)"
fill="#000000" stroke="none">
<path d="M4737 8452 c-21 -12 -82 -117 -235 -401 -130 -242 -216 -391 -232
-402 -20 -14 -59 -19 -193 -26 -92 -4 -167 -4 -167 0 0 5 -4 6 -9 2 -20 -12
-80 58 -201 234 -358 520 -375 541 -413 541 -12 0 -191 -57 -397 -126 -374
-127 -420 -147 -435 -194 -3 -9 4 -120 14 -246 11 -126 26 -320 33 -432 15
-253 21 -238 -145 -353 -67 -46 -132 -90 -146 -98 -27 -15 -145 -25 -136 -11
3 4 -1 8 -8 7 -34 -1 -48 4 -41 15 4 6 3 8 -3 5 -12 -8 -93 22 -93 34 0 5 -7
5 -17 2 -11 -4 -14 -3 -9 5 4 8 2 10 -7 6 -8 -3 -21 2 -30 10 -8 8 -17 13 -19
10 -3 -2 -24 4 -46 14 -23 10 -39 22 -35 26 4 4 0 4 -10 0 -10 -3 -17 -1 -17
6 0 6 -4 9 -9 5 -11 -6 -61 15 -61 26 0 5 -6 6 -14 3 -7 -3 -20 1 -27 9 -8 7
-19 12 -25 10 -7 -2 -18 2 -25 10 -8 7 -20 12 -28 9 -9 -3 -11 0 -6 8 5 8 4
11 -2 7 -14 -9 -76 17 -66 27 4 4 0 4 -10 0 -10 -3 -17 -1 -17 6 0 6 -4 8 -10
5 -5 -3 -10 -2 -10 4 0 6 -7 7 -17 4 -11 -5 -14 -3 -8 6 6 10 2 11 -15 6 -15
-5 -20 -4 -16 4 5 7 1 9 -8 5 -9 -3 -16 -1 -16 5 0 6 -7 8 -17 4 -11 -4 -14
-3 -9 5 10 16 -62 15 -92 -1 -12 -7 -32 -27 -45 -44 -12 -17 -76 -97 -142
-178 -127 -157 -139 -172 -252 -315 -105 -133 -107 -123 69 -357 78 -103 175
-231 215 -283 129 -167 164 -218 169 -252 8 -45 -133 -389 -175 -432 -32 -32
-47 -35 -416 -101 -403 -72 -479 -87 -497 -96 -31 -16 -45 -51 -57 -134 -44
-318 -71 -572 -71 -681 l0 -61 83 -31 c45 -17 138 -51 207 -76 69 -25 181 -66
250 -91 69 -26 164 -60 212 -77 87 -30 132 -62 149 -106 10 -25 68 -341 76
-413 4 -33 0 -55 -13 -81 -11 -19 -159 -166 -330 -326 -171 -160 -314 -298
-318 -307 -3 -9 -6 -28 -6 -42 0 -21 192 -410 311 -629 59 -109 64 -110 309
-55 308 69 371 83 497 112 174 42 187 39 279 -54 212 -216 272 -285 283 -322
10 -39 -5 -120 -69 -350 -74 -271 -131 -522 -125 -552 8 -43 28 -58 280 -198
116 -65 253 -142 306 -171 93 -52 120 -61 153 -48 29 11 17 20 -23 16 -42 -4
-26 -12 -391 193 -275 154 -291 164 -306 201 -13 32 -10 51 61 326 143 560
139 538 126 586 -10 34 -42 75 -172 211 -158 168 -201 201 -256 201 -15 0
-118 -21 -228 -45 -110 -25 -263 -59 -340 -76 -77 -16 -165 -36 -196 -44 -31
-8 -66 -15 -77 -15 -41 0 -79 49 -162 212 -45 90 -118 231 -161 314 -119 227
-141 175 228 520 170 158 318 303 330 323 34 54 29 129 -33 431 -28 137 -47
158 -196 210 -46 15 -139 49 -208 75 -69 25 -206 76 -305 111 -99 36 -186 70
-192 76 -16 13 -17 103 -2 275 12 148 64 531 73 540 4 4 11 2 16 -3 6 -6 1
-78 -15 -199 -21 -163 -55 -508 -55 -564 0 -15 43 -34 218 -96 119 -43 267
-95 327 -117 61 -22 151 -54 200 -70 63 -21 101 -41 126 -65 33 -32 40 -34 90
-31 l54 3 -55 28 c-60 29 -54 37 9 11 70 -28 85 -63 127 -296 32 -176 35 -211
25 -236 -14 -33 -74 -93 -398 -396 -210 -195 -223 -210 -223 -243 0 -26 35
-103 126 -282 191 -373 195 -379 229 -395 33 -16 74 -9 480 84 343 79 343 79
380 69 25 -7 75 -53 190 -172 87 -89 161 -172 166 -185 16 -40 10 -83 -36
-257 -127 -490 -149 -591 -136 -623 14 -33 23 -39 321 -208 276 -155 323 -178
353 -170 18 4 128 108 314 296 229 232 294 293 325 302 40 12 52 10 328 -53
138 -31 155 -37 182 -66 19 -21 57 -122 148 -398 112 -337 126 -373 158 -404
l35 -34 141 6 c204 9 544 46 578 63 15 8 34 24 42 37 7 12 32 117 55 232 24
116 55 266 71 335 15 69 31 145 35 170 9 52 25 88 53 113 24 22 383 157 417
157 44 0 87 -25 191 -111 56 -46 152 -124 214 -174 61 -49 144 -116 183 -148
110 -91 139 -102 189 -69 72 46 542 409 563 434 14 16 25 42 25 57 0 15 -31
108 -69 206 -116 303 -208 549 -215 572 -16 51 17 109 192 339 63 81 27 81
630 13 353 -39 314 -58 407 201 31 85 85 235 121 333 67 185 74 219 49 253 -8
12 -114 95 -235 185 -405 301 -430 320 -445 349 -8 16 -15 38 -15 50 0 18 6
20 69 20 l69 0 4 -60 c3 -40 11 -70 25 -87 17 -24 192 -155 553 -415 155 -112
184 -141 176 -174 -13 -51 -250 -703 -267 -736 -15 -27 17 -23 35 4 14 21 144
372 237 635 37 106 39 115 26 146 -11 26 -72 76 -278 228 -405 299 -422 312
-447 349 -23 35 -24 37 -17 200 8 186 19 226 68 254 17 10 197 101 398 202
202 101 371 190 377 197 18 21 8 141 -21 262 -15 61 -50 218 -77 350 -28 132
-58 250 -66 263 -9 13 -29 29 -45 36 -16 7 -26 16 -22 20 5 5 -20 6 -54 4 -34
-2 -60 -1 -57 4 3 4 -19 8 -49 8 -30 0 -150 7 -268 15 -118 8 -265 17 -327 19
-154 7 -162 13 -261 198 -70 130 -70 157 -4 263 28 44 116 193 198 330 81 138
158 266 171 286 28 45 30 54 20 102 -6 33 -47 79 -278 315 -149 152 -287 292
-306 310 -54 49 -66 46 -252 -60 -60 -34 -293 -163 -464 -256 -182 -99 -199
-100 -341 -18 -173 100 -166 84 -177 391 -5 132 -12 329 -16 439 l-8 198 -31
28 c-17 16 -29 30 -27 33 3 3 -111 33 -253 67 -142 34 -321 77 -397 96 -162
39 -162 39 -199 16z m-2240 -423 c3 -40 27 -329 48 -579 19 -229 19 -247 -3
-259 -16 -9 -18 -6 -14 19 4 31 -22 409 -43 625 -19 179 -19 238 -2 233 6 -3
13 -20 14 -39z m-1697 -1509 c14 -19 126 -168 249 -330 175 -229 228 -305 237
-341 13 -50 8 -93 -18 -144 -9 -16 -39 -89 -68 -160 -38 -97 -56 -131 -69
-131 -15 0 -16 3 -5 26 7 14 40 91 73 173 67 161 74 210 42 263 -11 18 -128
174 -260 349 -227 299 -241 320 -240 359 l1 41 16 -35 c9 -20 28 -51 42 -70z
m3733 61 c179 -21 339 -64 552 -149 185 -73 337 -160 533 -305 114 -84 316
-283 404 -397 86 -112 225 -330 243 -381 8 -22 21 -52 30 -67 34 -61 84 -184
105 -258 12 -43 28 -99 35 -124 18 -60 30 -119 56 -275 18 -106 22 -167 21
-331 -1 -179 -4 -221 -32 -375 -46 -255 -100 -429 -186 -601 -19 -37 -34 -74
-34 -81 0 -14 -197 -316 -242 -371 -149 -183 -281 -307 -455 -431 -260 -185
-495 -294 -813 -376 -185 -48 -491 -69 -740 -51 -588 44 -1197 362 -1563 817
-98 122 -311 445 -293 445 3 0 -17 46 -44 103 -48 100 -103 254 -113 312 -3
17 -14 68 -25 115 -58 248 -73 566 -38 800 23 151 78 388 110 471 32 85 110
263 137 314 91 167 260 396 394 531 152 153 251 231 468 368 242 153 615 276
922 305 125 11 438 7 568 -8z m2804 -2403 c-2 -18 -4 -6 -4 27 0 33 2 48 4 33
2 -15 2 -42 0 -60z m-6712 4 c-3 -3 -11 0 -18 7 -9 10 -8 11 6 5 10 -3 15 -9
12 -12z m75 -22 c8 -5 11 -10 5 -10 -5 0 -17 5 -25 10 -8 5 -10 10 -5 10 6 0
17 -5 25 -10z m180 -65 c25 -10 50 -22 55 -27 12 -11 -92 28 -115 43 -19 13
-6 9 60 -16z m6447 -72 c-2 -16 -4 -3 -4 27 0 30 2 43 4 28 2 -16 2 -40 0 -55z"/>
<path d="M3885 6343 c-53 -44 -166 -92 -245 -104 -89 -13 -121 -28 -154 -72
-30 -39 -56 -132 -56 -199 0 -47 1 -48 30 -48 17 0 30 -4 30 -10 0 -5 24 -10
53 -10 48 0 56 3 75 30 26 34 76 62 147 79 28 7 62 18 77 23 38 14 96 80 124
142 29 63 61 182 51 192 -3 4 -18 -2 -33 -12 -80 -56 -98 -59 -73 -12 16 29 8
29 -26 1z"/>
<path d="M3329 5873 c0 -10 -13 -288 -27 -618 l-27 -600 -85 -12 c-47 -7 -253
-38 -459 -68 -205 -30 -377 -55 -382 -55 -5 0 -9 -258 -9 -615 l0 -615 1930 0
1930 0 0 519 c0 403 -3 521 -12 528 -7 6 -49 16 -93 22 -102 16 -115 20 -115
35 0 8 -7 19 -15 26 -8 7 -12 16 -9 21 3 5 -2 9 -10 9 -9 0 -16 -4 -16 -10 0
-5 -7 -7 -16 -3 -13 5 -13 8 -2 15 8 6 -4 8 -37 4 -33 -3 -43 -2 -30 4 17 7
15 9 -12 9 -18 1 -33 -3 -33 -9 0 -5 -7 -7 -16 -3 -11 4 -12 8 -4 13 6 4 -24
12 -67 19 -43 7 -90 14 -105 17 l-28 6 0 277 0 278 -85 12 c-86 12 -160 43
-133 55 7 3 -9 4 -37 1 -35 -3 -45 -2 -35 5 11 7 5 10 -23 10 -21 0 -36 -4
-33 -9 4 -5 -3 -7 -15 -4 -16 4 -17 8 -7 14 9 6 2 9 -19 9 -18 0 -33 -4 -33
-10 0 -5 -7 -7 -16 -3 -13 5 -13 7 -2 14 9 6 2 9 -19 9 -18 0 -33 -4 -33 -9 0
-5 -10 -7 -22 -3 -21 5 -21 6 -2 13 14 6 9 8 -18 8 -21 1 -38 -3 -38 -9 0 -5
-7 -7 -16 -3 -13 5 -13 7 -2 14 9 6 2 9 -19 9 -18 0 -33 -4 -33 -10 0 -5 -7
-7 -16 -3 -13 5 -13 8 -2 15 8 6 -6 8 -42 4 -32 -3 -49 -2 -41 3 8 5 -12 11
-55 16 -45 5 -70 3 -72 -3 -2 -6 -10 -8 -18 -5 -13 5 -13 7 -2 15 8 6 -4 8
-36 5 -33 -3 -44 -2 -35 5 10 6 -4 8 -41 5 -31 -3 -46 -2 -35 2 14 6 -4 11
-60 18 -74 10 -105 7 -404 -38 -216 -33 -327 -46 -331 -39 -4 6 -12 158 -19
338 -7 180 -16 330 -19 334 -6 5 -65 15 -105 17 -5 1 -5 6 -2 11 4 6 -43 10
-134 10 -127 0 -141 -2 -142 -17z m47 -145 c-3 -73 -13 -290 -21 -483 -20
-498 -26 -595 -36 -595 -12 0 -12 33 11 560 25 581 29 650 42 650 8 0 9 -42 4
-132z m174 -539 l0 -642 -92 7 c-50 3 -93 8 -96 11 -3 2 7 273 22 602 14 329
26 613 26 631 l0 32 70 0 70 0 0 -641z m840 21 c0 -11 -2 -20 -3 -20 -2 0
-127 -18 -278 -40 -151 -23 -293 -44 -316 -47 -39 -5 -43 -4 -43 16 0 11 3 21
8 21 4 1 133 20 287 44 334 52 345 53 345 26z m395 -10 c3 -6 -1 -7 -9 -4 -18
7 -21 14 -7 14 6 0 13 -4 16 -10z m-285 -385 l0 -355 -22 0 c-34 0 -692 62
-696 65 -4 4 -19 292 -23 440 l-3 99 339 52 c187 29 355 53 373 53 l32 1 0
-355z m520 70 c7 -8 27 -15 44 -15 17 0 50 -9 74 -20 70 -32 82 -70 82 -267 0
-181 5 -169 -79 -175 l-45 -3 3 162 c2 148 1 162 -16 171 -19 9 -40 5 -87 -18
-27 -14 -30 -13 -58 19 -26 30 -30 39 -25 78 2 24 13 53 22 63 21 24 67 26 85
5z m310 -30 c7 -8 26 -15 43 -15 17 0 50 -9 73 -20 64 -31 74 -62 74 -224 0
-149 4 -141 -67 -149 l-42 -5 -3 136 -3 137 -27 3 c-15 2 -38 -4 -52 -13 -34
-23 -65 -11 -83 32 -15 38 -11 73 13 111 17 25 55 29 74 7z m-2100 -270 c0
-19 -4 -35 -8 -35 -5 0 -112 -16 -238 -35 -126 -20 -308 -47 -404 -61 -96 -14
-183 -27 -192 -30 -15 -4 -18 1 -18 30 0 20 1 36 3 37 4 1 831 127 845 128 7
1 12 -12 12 -34z m50 -618 l0 -563 -197 -18 c-109 -9 -290 -28 -403 -42 -113
-13 -229 -27 -257 -31 l-53 -6 0 542 c0 297 1 541 3 542 1 0 205 31 452 69
248 37 451 68 453 69 1 1 2 -252 2 -562z m2330 523 c0 -5 -2 -10 -4 -10 -3 0
-8 5 -11 10 -3 6 -1 10 4 10 6 0 11 -4 11 -10z m67 -6 c-3 -3 -12 -4 -19 -1
-8 3 -5 6 6 6 11 1 17 -2 13 -5z m60 -10 c-3 -3 -12 -4 -19 -1 -8 3 -5 6 6 6
11 1 17 -2 13 -5z m-237 -584 l0 -531 -32 6 c-59 9 -350 34 -548 46 -107 6
-201 13 -207 15 -10 3 -13 100 -13 444 0 343 3 442 13 445 6 3 183 27 392 54
209 27 383 49 388 50 4 1 7 -238 7 -529z m-1757 413 c4 -2 7 -37 7 -77 l0 -74
-67 5 c-119 8 -113 2 -113 89 l0 76 83 -7 c45 -4 85 -9 90 -12z m305 -19 l52
-7 0 -73 0 -74 -44 0 c-24 0 -64 3 -90 6 l-46 7 0 73 0 74 38 0 c20 0 61 -3
90 -6z m371 -30 l31 -6 0 -76 0 -75 -82 8 c-46 4 -86 9 -90 11 -5 3 -8 36 -8
75 l0 69 59 0 c32 0 73 -3 90 -6z m-721 -220 l52 -7 0 -73 0 -74 -52 0 c-29 0
-70 3 -90 6 l-38 7 0 73 0 74 38 0 c20 0 61 -3 90 -6z m370 -30 l32 -5 0 -74
0 -75 -29 0 c-15 0 -56 3 -90 6 l-61 7 0 72 c0 39 2 74 5 77 6 5 86 1 143 -8z
m335 -24 l47 0 0 -80 0 -81 -77 6 c-43 4 -84 8 -90 10 -14 5 -19 136 -5 149 4
4 23 5 42 2 19 -3 56 -6 83 -6z"/>
<path d="M6973 2545 c-27 -19 -229 -293 -243 -329 -27 -72 -16 -111 140 -520
83 -215 150 -402 150 -415 0 -35 -18 -51 -440 -369 -69 -52 -127 -100 -129
-106 -5 -14 -9 -17 312 227 152 115 278 215 281 223 13 33 4 69 -45 197 -180
469 -249 661 -249 695 0 21 8 53 18 72 25 49 222 313 229 307 2 -3 23 1 44 8
42 15 49 15 597 -46 301 -33 306 -33 319 -17 11 12 4 14 -45 11 -31 -2 -140 5
-242 16 -587 64 -589 65 -632 48 -33 -13 -38 -14 -28 -2 17 21 -8 20 -37 0z"/>
<path d="M5405 1241 c-174 -65 -225 -87 -225 -96 0 -2 37 11 83 30 135 55 290
113 320 120 15 4 43 4 62 1 35 -7 45 -15 449 -341 109 -88 212 -170 229 -182
37 -27 76 -29 117 -8 43 22 37 26 -10 8 -37 -15 -44 -15 -74 -1 -18 9 -173
129 -344 267 -171 138 -323 256 -337 261 -49 18 -89 10 -270 -59z"/>
<path d="M5133 1146 c-40 -34 -47 -52 -88 -251 -20 -93 -58 -276 -85 -405 -27
-129 -52 -243 -55 -252 -8 -21 8 -24 24 -4 10 12 100 420 161 726 23 117 26
126 57 168 32 42 24 50 -14 18z"/>
<path d="M3220 1139 c-11 -7 -6 -8 20 -4 35 6 100 -6 360 -65 119 -27 139 -34
166 -63 27 -27 51 -90 159 -417 70 -212 134 -397 142 -412 22 -46 60 -58 175
-58 99 0 312 17 523 41 98 11 153 25 143 35 -3 2 -18 0 -33 -6 -56 -21 -635
-67 -708 -56 -80 12 -83 19 -223 439 -69 210 -134 395 -143 412 -31 54 -68 69
-293 118 -221 49 -263 54 -288 36z"/>
<path d="M2929 913 c-322 -329 -363 -373 -348 -373 7 0 64 53 128 118 63 64
196 199 295 300 99 100 172 182 164 182 -9 0 -116 -102 -239 -227z"/>
</g>
</svg>
